<svg version="1.2" xmlns="http://www.w3.org/2000/svg" viewBox="0 0 448 512" width="448" height="512">
	<title>checked</title>
	<style>
		.s0 { fill: #ffffff } 
		.s1 { fill: #535353 } 
	</style>
	<path id="Forme 1" fill-rule="evenodd" class="s0" d="m419 89v325h-377v-325z"/>
	<g id="Layer 1">
		<path class="s1" d="m400 480h-352c-26.5 0-48-21.5-48-48v-352c0-26.5 21.5-48 48-48h352c26.5 0 48 21.5 48 48v352c0 26.5-21.5 48-48 48zm-204.7-98.1l184-184c6.3-6.2 6.3-16.3 0-22.6l-22.6-22.6c-6.3-6.3-16.4-6.3-22.6 0l-150.1 150-70.1-70c-6.2-6.3-16.3-6.3-22.6 0l-22.6 22.6c-6.3 6.3-6.3 16.4 0 22.6l104 104c6.2 6.3 16.4 6.3 22.6 0z"/>
	</g>
</svg>