<svg version="1.2" xmlns="http://www.w3.org/2000/svg" viewBox="0 0 800 800" width="800" height="800">
	<title>logout-svgrepo-com</title>
	<style>
		.s0 { fill: #4b4b4b } 
	</style>
	<g id="XMLID_2_">
		<path id="XMLID_4_" class="s0" d="m151.5 433.6h241.9c19.3 0 35-15.6 35-35 0-19.3-15.7-35-35-35h-241.9l45.2-45.2c13.7-13.7 13.7-35.8 0-49.5-13.6-13.7-35.8-13.7-49.4 0l-105 105q-1.3 1.2-2.3 2.5-0.3 0.4-0.5 0.7-0.9 1-1.6 2.1-0.2 0.3-0.4 0.6-0.7 1.1-1.4 2.3-0.1 0.3-0.2 0.5-0.7 1.3-1.2 2.6-0.1 0.2-0.1 0.4-0.6 1.4-1.1 2.8 0 0.2-0.1 0.4-0.4 1.5-0.7 2.9-0.1 0.5-0.2 0.9c-0.1 0.9-0.2 1.7-0.3 2.5q-0.2 1.8-0.2 3.5 0 1.8 0.2 3.5c0.1 0.9 0.2 1.7 0.4 2.5q0 0.5 0.1 0.9 0.3 1.5 0.7 3 0.1 0.2 0.1 0.3 0.5 1.5 1.1 2.9 0 0.2 0.1 0.3 0.5 1.4 1.2 2.7 0.1 0.2 0.2 0.4 0.7 1.2 1.4 2.4 0.2 0.3 0.4 0.6 0.7 1.1 1.6 2.1 0.2 0.3 0.5 0.6 1 1.4 2.3 2.6l104.9 105c6.9 6.8 15.8 10.2 24.8 10.2 9 0 17.9-3.4 24.7-10.2 13.7-13.7 13.7-35.8 0-49.5z"/>
		<path id="XMLID_5_" class="s0" d="m381.2 13.2c-129.1 0-249.2 64-321.2 171.3-14.6 21.7-8.8 51 12.8 65.6 21.7 14.6 51.1 8.8 65.7-12.9 54.4-81 145.2-129.4 242.7-129.4 161.1 0 292.2 131.1 292.2 292.2 0 161.1-131.1 292.2-292.2 292.2-97.2 0-187.8-48.1-242.3-128.8-14.7-21.7-44.1-27.4-65.7-12.8-21.6 14.7-27.3 44.1-12.7 65.7 72.1 106.8 192 170.5 320.7 170.5 213.3 0 386.8-173.5 386.8-386.8 0-213.3-173.5-386.8-386.8-386.8z"/>
	</g>
</svg>